<svg xmlns="http://www.w3.org/2000/svg" viewBox="0 0 128 137" width="128" height="137" fill="none" stroke="#111" stroke-width="1" stroke-linejoin="round" stroke-linecap="round">
<path d="M 101 0 L 78 12 L 76 33 L 58 33 L 103 36 L 98 61 L 107 68 L 103 62 L 109 40 L 102 55 L 105 37 L 111 37 L 110 102 L 86 130 L 73 135 L 44 133 L 22 116 L 12 94 L 17 65 L 15 88 L 48 85 L 64 61 L 88 53 L 64 38 L 46 40 L 44 35 L 6 63 L 0 88 L 5 70 L 14 66 L 15 108 L 43 134 L 86 132 L 110 106 L 112 35 L 81 34 L 78 19 L 81 22 L 87 11 L 99 31 L 111 32 L 113 16 L 124 34 L 120 42 L 124 113 L 115 135 L 122 132 L 125 32 L 115 12 Z"/>

<path d="M 98 2 L 100 2 L 101 3 L 100 4 L 100 5 L 101 6 L 101 8 L 103 10 L 103 11 L 104 12 L 104 13 L 105 14 L 105 15 L 106 16 L 106 17 L 107 18 L 107 22 L 108 23 L 108 30 L 107 31 L 105 31 L 103 29 L 103 27 L 102 26 L 102 24 L 101 23 L 101 22 L 100 21 L 100 20 L 95 15 L 95 14 L 90 9 L 91 8 L 91 7 L 93 5 L 95 5 L 95 4 L 96 3 L 97 3 Z"/>

<path d="M 0 107 L 0 108 L 1 109 L 0 110 L 0 111 L 1 112 L 0 113 L 0 117 L 1 118 L 0 119 L 0 123 L 1 124 L 1 128 L 4 131 L 4 132 L 5 133 L 5 134 L 6 134 L 7 135 L 7 136 L 8 136 L 8 130 L 7 130 L 6 129 L 5 129 L 4 128 L 4 126 L 3 126 L 2 125 L 2 122 L 1 121 L 2 120 L 2 116 L 1 115 L 1 114 L 2 113 L 2 110 L 3 109 L 3 108 L 2 107 Z"/>

<path d="M 85 52 L 84 53 L 80 53 L 79 54 L 75 54 L 74 55 L 69 56 L 65 58 L 63 60 L 62 60 L 54 68 L 52 72 L 52 74 L 50 77 L 49 82 L 47 84 L 24 84 L 23 85 L 20 85 L 16 87 L 15 86 L 16 75 L 17 74 L 18 69 L 23 60 L 32 50 L 33 50 L 39 45 L 47 41 L 50 41 L 51 40 L 54 40 L 55 39 L 63 39 L 64 40 L 67 40 L 77 45 Z"/>

</svg>