<svg xmlns="http://www.w3.org/2000/svg" viewBox="0 0 128 137" width="128" height="137" fill="none" stroke="#111" stroke-width="1.06" stroke-linejoin="round" stroke-linecap="round">
<path d="M 112.33 17.00 L 112.33 21.00 L 113.00 21.00 L 113.33 20.00 L 114.67 21.00 L 114.67 22.00 L 113.00 22.67 L 113.00 24.00 L 114.67 25.33 L 116.33 25.00 L 117.00 25.67 L 116.33 26.67 L 116.33 30.00 L 119.33 32.67 L 117.67 35.33 L 119.00 35.33 L 119.67 39.00 L 121.00 39.00 L 121.33 38.00 L 122.00 38.00 L 121.33 40.33 L 122.33 41.33 L 119.67 42.67 L 119.67 45.33 L 122.33 47.67 L 121.33 49.67 L 122.33 50.67 L 122.33 52.67 L 123.00 53.33 L 122.00 54.67 L 120.33 54.67 L 120.33 56.00 L 122.00 56.00 L 122.67 58.00 L 121.00 58.67 L 119.67 60.67 L 119.67 63.00 L 120.67 63.33 L 119.67 63.67 L 119.67 65.00 L 120.67 65.33 L 119.67 65.67 L 119.33 66.67 L 120.67 67.33 L 118.67 69.67 L 119.00 71.00 L 122.67 70.33 L 122.00 71.67 L 120.33 71.67 L 120.33 73.00 L 121.67 73.67 L 121.67 75.67 L 122.67 76.33 L 122.33 77.33 L 121.33 78.00 L 120.33 77.33 L 119.33 77.67 L 119.33 79.00 L 120.33 80.00 L 122.33 80.33 L 120.33 80.67 L 120.33 82.00 L 121.33 82.67 L 121.33 84.00 L 122.67 84.67 L 122.67 85.33 L 120.67 86.67 L 121.00 88.00 L 122.67 88.33 L 120.33 88.67 L 120.67 90.33 L 122.67 90.33 L 122.67 92.33 L 121.00 93.33 L 121.00 95.00 L 122.67 96.33 L 122.67 98.33 L 121.67 98.67 L 121.33 100.33 L 119.33 101.00 L 119.67 102.00 L 121.67 102.33 L 122.33 101.67 L 122.67 102.67 L 121.67 104.67 L 119.67 104.67 L 119.67 106.67 L 120.33 106.67 L 121.00 105.33 L 122.00 107.33 L 120.33 107.67 L 120.67 109.33 L 119.33 110.33 L 119.33 114.00 L 121.33 112.33 L 121.33 109.33 L 122.33 109.67 L 122.33 112.00 L 123.00 112.33 L 121.33 113.67 L 121.33 115.00 L 122.00 115.33 L 121.33 117.33 L 118.67 117.67 L 118.67 119.00 L 119.67 119.00 L 121.33 121.00 L 119.00 121.67 L 117.33 123.67 L 118.33 129.00 L 117.33 130.00 L 116.33 129.33 L 114.67 129.67 L 113.67 132.00 L 113.67 134.00 L 115.33 134.33 L 115.67 136.67 L 115.67 134.00 L 116.67 133.33 L 116.67 132.00 L 117.67 131.33 L 117.33 130.67 L 118.67 129.33 L 118.33 128.67 L 120.67 125.00 L 120.67 122.00 L 121.67 121.33 L 121.33 117.33 L 122.67 116.33 L 122.67 113.33 L 123.33 112.67 L 122.33 111.33 L 123.67 110.33 L 123.00 109.67 L 123.67 107.67 L 122.67 106.00 L 123.67 104.00 L 122.33 103.67 L 123.67 102.33 L 122.33 101.00 L 123.67 100.33 L 123.00 96.00 L 124.00 94.67 L 122.33 93.67 L 123.33 89.67 L 123.33 86.00 L 122.67 85.00 L 123.33 82.00 L 122.33 80.33 L 123.67 78.67 L 123.00 77.67 L 123.67 76.33 L 123.00 75.67 L 123.00 69.00 L 122.33 68.33 L 123.00 67.33 L 122.33 66.00 L 123.00 62.00 L 123.67 61.33 L 122.67 59.00 L 122.67 55.00 L 123.33 53.67 L 122.67 51.33 L 123.67 50.00 L 122.00 49.67 L 123.00 48.33 L 122.33 46.67 L 123.33 44.00 L 122.67 43.33 L 123.67 42.33 L 122.33 41.00 L 122.67 38.33 L 122.00 37.67 L 122.33 36.00 L 121.33 35.00 L 121.67 33.33 L 120.33 32.33 L 120.67 30.33 L 119.33 29.00 L 120.33 27.33 L 118.67 26.67 L 119.33 25.00 L 118.67 26.00 L 117.33 25.00 L 117.67 24.33 L 113.67 19.33 L 114.00 18.33 Z"/>
<path d="M 99.00 0.67 L 96.33 1.33 L 89.33 6.67 L 88.00 6.00 L 88.00 7.67 L 86.67 7.00 L 89.67 11.00 L 86.67 9.67 L 79.00 17.33 L 80.00 20.67 L 78.00 22.00 L 79.00 24.33 L 77.00 25.00 L 79.00 26.33 L 79.67 29.67 L 78.33 31.67 L 80.00 33.33 L 91.00 34.33 L 53.00 34.67 L 40.33 38.67 L 34.33 42.67 L 33.00 42.33 L 31.33 44.67 L 30.00 43.67 L 30.67 45.00 L 28.67 45.33 L 29.33 46.00 L 24.67 49.67 L 22.00 53.67 L 21.33 52.33 L 19.67 53.67 L 20.67 54.67 L 20.00 56.00 L 18.00 55.00 L 19.67 57.00 L 17.33 57.00 L 17.00 60.67 L 15.00 57.33 L 12.00 63.33 L 10.00 64.00 L 7.00 69.00 L 5.00 75.33 L 1.67 78.67 L 2.00 82.33 L 1.00 83.67 L 2.00 85.00 L 0.00 87.00 L 1.33 88.33 L 1.67 86.00 L 4.00 85.00 L 3.33 83.33 L 4.33 81.67 L 6.33 81.00 L 5.33 78.67 L 10.00 75.67 L 11.00 79.67 L 9.33 80.67 L 9.33 88.67 L 10.67 89.00 L 12.67 101.00 L 17.67 112.00 L 21.33 117.67 L 29.33 125.67 L 41.67 133.00 L 57.00 136.67 L 70.67 136.33 L 79.67 134.00 L 93.00 127.00 L 103.33 116.67 L 108.00 108.67 L 109.33 108.33 L 109.00 106.33 L 112.33 99.67 L 112.33 93.67 L 111.33 93.00 L 112.33 91.33 L 111.33 88.67 L 112.33 87.00 L 111.33 85.00 L 112.33 84.67 L 111.33 83.00 L 112.33 80.67 L 112.33 74.67 L 111.33 74.00 L 111.33 70.33 L 112.33 70.00 L 112.33 65.33 L 111.33 64.67 L 112.33 63.00 L 112.33 34.67 L 110.67 33.33 L 108.33 34.33 L 91.67 34.33 L 91.33 33.33 L 82.67 33.00 L 82.00 31.67 L 79.67 32.00 L 82.33 29.33 L 80.00 29.33 L 79.33 25.33 L 80.67 27.33 L 82.33 27.00 L 81.00 23.67 L 79.33 23.33 L 79.67 22.00 L 81.00 22.00 L 80.00 18.33 L 82.00 18.33 L 86.33 14.67 L 89.33 21.33 L 99.67 31.00 L 107.67 31.33 L 108.33 32.33 L 112.33 31.00 L 112.33 29.67 L 111.33 30.67 L 112.00 15.67 L 109.67 12.00 L 107.67 11.67 L 107.67 10.00 L 104.33 11.33 L 105.00 8.00 L 104.00 7.00 L 104.33 9.00 L 103.33 9.00 L 103.33 6.67 L 102.33 7.00 Z"/>
<path d="M 0.00 109.67 L 0.00 110.33 L 0.33 110.67 L 0.33 113.00 L 0.00 113.33 L 0.67 114.00 L 0.67 114.67 L 0.33 115.00 L 0.00 115.00 L 0.00 115.67 L 0.33 115.67 L 1.33 116.67 L 1.00 117.00 L 1.00 118.67 L 1.33 119.00 L 1.33 119.67 L 2.33 120.67 L 2.67 120.67 L 3.33 121.33 L 2.67 122.33 L 2.67 123.00 L 3.00 123.33 L 3.00 124.33 L 3.67 125.00 L 3.67 125.67 L 4.00 126.00 L 4.00 126.33 L 5.00 127.00 L 5.00 128.33 L 5.67 129.00 L 5.67 129.33 L 6.00 129.67 L 6.00 130.33 L 7.00 131.00 L 7.00 131.67 L 6.67 132.00 L 6.00 132.00 L 6.00 132.67 L 6.33 132.67 L 8.00 134.33 L 8.00 134.67 L 8.33 135.00 L 8.33 135.67 L 9.00 136.33 L 9.00 136.67 L 10.33 136.67 L 10.33 135.00 L 10.00 134.67 L 9.00 134.67 L 8.67 134.33 L 9.00 134.00 L 9.00 133.00 L 9.33 132.67 L 10.67 134.00 L 11.00 134.00 L 11.33 134.33 L 12.00 134.33 L 12.33 134.00 L 13.00 134.00 L 13.00 132.67 L 12.33 132.67 L 11.00 131.33 L 11.00 129.67 L 7.67 129.67 L 7.33 130.00 L 7.00 130.00 L 5.67 128.67 L 6.00 128.33 L 7.00 128.33 L 7.00 127.67 L 7.33 127.33 L 7.67 127.67 L 7.67 129.00 L 9.00 129.00 L 9.00 127.00 L 7.67 127.00 L 7.33 126.67 L 5.00 126.67 L 4.33 126.00 L 4.33 124.33 L 4.67 124.00 L 5.00 124.00 L 5.00 122.67 L 4.67 122.67 L 4.33 122.33 L 4.33 121.00 L 4.00 120.67 L 4.00 120.33 L 3.33 120.33 L 3.00 120.00 L 3.00 118.67 L 2.00 118.67 L 1.67 118.33 L 2.00 118.00 L 2.33 118.00 L 2.33 116.67 L 0.67 115.00 L 0.67 114.33 L 1.00 114.00 L 1.00 109.67 Z"/>
<path d="M 97.00 2.00 L 97.67 2.00 L 98.00 1.67 L 98.33 1.67 L 99.33 2.67 L 99.33 3.33 L 99.67 3.67 L 99.67 4.00 L 100.67 5.00 L 100.67 5.33 L 101.33 6.00 L 101.33 6.67 L 101.67 7.00 L 102.00 8.00 L 102.67 8.67 L 102.67 9.33 L 103.33 10.00 L 103.33 10.33 L 103.67 10.67 L 103.67 11.33 L 104.33 12.00 L 104.33 12.33 L 104.67 12.67 L 104.67 14.00 L 105.67 15.67 L 105.67 16.33 L 106.33 17.00 L 106.33 17.33 L 106.00 17.67 L 106.00 18.33 L 106.67 19.00 L 106.67 20.00 L 107.00 20.33 L 107.00 20.67 L 107.33 21.00 L 107.33 21.67 L 107.67 22.00 L 107.67 24.00 L 108.33 25.00 L 108.33 26.00 L 108.67 26.33 L 108.67 29.00 L 108.33 29.33 L 108.00 29.33 L 108.00 30.00 L 108.33 30.33 L 108.00 30.67 L 104.00 30.67 L 103.33 30.00 L 103.33 29.00 L 103.00 28.67 L 103.00 28.00 L 102.33 27.33 L 102.33 26.67 L 102.00 26.33 L 102.00 25.67 L 101.00 24.00 L 101.00 23.33 L 100.33 22.67 L 100.00 21.67 L 99.33 21.00 L 99.33 20.67 L 99.00 20.33 L 99.00 19.67 L 98.00 18.67 L 98.00 18.33 L 97.33 17.67 L 97.33 17.33 L 96.00 16.00 L 96.00 15.67 L 88.67 8.33 L 88.67 8.00 L 89.33 7.33 L 89.67 7.33 L 91.00 6.00 L 91.33 6.00 L 91.67 5.67 L 92.67 5.33 L 94.00 4.00 L 94.67 4.00 L 95.33 3.33 L 95.67 3.33 Z"/>
<path d="M 88.00 52.67 L 82.67 47.33 L 81.33 46.67 L 78.67 44.33 L 78.00 44.33 L 76.00 42.67 L 75.33 42.67 L 72.00 40.67 L 71.00 40.67 L 69.33 39.67 L 67.00 39.33 L 65.67 38.67 L 64.33 38.67 L 64.00 38.33 L 53.33 38.33 L 53.00 38.67 L 51.33 38.67 L 50.33 39.33 L 47.67 39.67 L 46.67 40.33 L 44.67 40.67 L 44.00 41.33 L 42.33 41.67 L 41.67 42.33 L 41.00 42.33 L 36.67 44.67 L 35.67 45.67 L 34.00 46.33 L 32.00 48.33 L 30.00 49.33 L 25.67 53.67 L 25.33 54.67 L 22.33 58.00 L 22.33 58.67 L 20.67 60.67 L 20.67 61.33 L 19.67 62.67 L 18.33 66.00 L 17.67 66.67 L 17.67 67.67 L 15.67 73.00 L 15.33 76.00 L 14.67 77.33 L 14.33 87.33 L 14.67 88.00 L 16.33 88.33 L 17.33 87.33 L 20.00 86.00 L 21.00 86.00 L 23.33 85.00 L 25.67 85.00 L 27.00 84.33 L 37.00 84.33 L 37.33 84.67 L 39.67 84.67 L 40.00 85.00 L 43.33 85.00 L 43.67 84.67 L 49.00 84.00 L 49.00 83.00 L 50.00 81.00 L 50.33 79.00 L 51.33 76.67 L 52.00 76.00 L 52.00 75.00 L 53.33 72.00 L 55.33 69.67 L 56.00 68.00 L 63.00 61.00 L 65.00 60.00 L 67.00 58.33 L 73.67 55.33 L 76.33 55.00 L 77.33 54.33 L 79.33 54.33 L 79.67 54.00 L 86.00 54.00 L 87.33 54.33 L 88.00 54.00 Z"/>
<path d="M 107.33 68.00 L 109.33 71.00 L 109.33 88.33 L 108.67 90.00 L 108.67 94.00 L 107.67 96.00 L 107.67 98.33 L 106.67 99.67 L 106.67 101.33 L 105.67 102.67 L 104.67 106.00 L 100.00 113.33 L 93.00 120.67 L 89.67 123.67 L 89.00 123.67 L 86.67 125.67 L 81.00 128.67 L 80.00 128.67 L 78.67 129.67 L 77.33 129.67 L 76.00 130.67 L 74.00 130.67 L 72.33 131.67 L 69.33 131.67 L 66.33 132.67 L 57.33 132.67 L 54.67 131.67 L 51.67 131.67 L 50.00 130.67 L 48.00 130.67 L 46.67 129.67 L 45.33 129.67 L 44.00 128.67 L 43.00 128.67 L 40.00 126.67 L 39.00 126.67 L 32.33 122.00 L 25.00 114.67 L 21.00 108.67 L 21.00 106.67 L 24.33 104.00 L 27.33 105.00 L 35.33 105.00 L 37.00 104.00 L 38.33 104.00 L 43.00 101.00 L 48.00 95.00 L 50.00 91.00 L 50.00 90.00 L 51.00 88.67 L 51.00 87.00 L 52.00 85.67 L 52.00 84.00 L 53.00 82.67 L 53.00 81.00 L 54.00 79.67 L 54.00 78.33 L 58.00 71.00 L 64.33 64.33 L 70.67 60.00 L 71.67 60.00 L 73.00 59.00 L 74.33 59.00 L 76.00 58.00 L 78.33 58.00 L 81.00 57.00 L 86.67 57.00 L 89.00 58.00 L 91.67 58.00 L 93.00 59.00 L 94.67 59.00 L 97.67 61.00 L 98.67 61.00 L 100.00 62.33 L 101.00 62.33 Z"/>
<path d="M 86.67 53.00 L 86.33 53.33 L 79.00 53.33 L 78.67 53.67 L 76.33 53.67 L 75.00 54.33 L 72.67 54.67 L 71.00 55.67 L 70.00 55.67 L 66.67 57.67 L 66.00 57.67 L 64.00 59.33 L 62.00 60.33 L 60.67 61.67 L 60.33 61.33 L 58.33 61.67 L 58.33 62.33 L 59.67 62.67 L 55.33 67.00 L 54.67 68.67 L 52.67 71.00 L 52.67 71.67 L 50.67 75.33 L 49.33 75.67 L 48.67 76.67 L 46.33 77.67 L 46.33 78.33 L 47.33 78.33 L 49.33 77.33 L 50.00 77.67 L 48.67 81.00 L 48.33 83.00 L 47.33 83.67 L 45.00 83.67 L 42.67 84.33 L 38.00 84.00 L 37.67 83.67 L 26.33 83.67 L 25.00 84.33 L 21.00 84.67 L 20.00 85.33 L 18.33 85.67 L 15.67 87.33 L 15.00 86.67 L 15.33 78.00 L 16.00 77.00 L 16.33 74.00 L 17.33 72.33 L 17.33 70.67 L 18.33 69.00 L 18.33 68.00 L 19.00 67.33 L 19.33 65.67 L 20.00 65.00 L 20.33 63.67 L 21.33 62.67 L 21.33 62.00 L 27.33 54.00 L 31.00 50.33 L 38.00 45.00 L 38.67 45.00 L 44.00 42.00 L 45.00 42.00 L 45.67 41.33 L 54.00 39.00 L 63.00 39.00 L 66.00 40.00 L 67.33 40.00 L 69.00 41.00 L 71.00 41.33 L 71.67 42.00 L 75.00 43.33 L 77.00 45.00 L 77.67 45.00 L 79.33 46.67 L 81.67 48.00 Z"/>
<path d="M 108.67 35.00 L 109.00 35.33 L 109.00 36.33 L 109.33 36.67 L 109.33 39.33 L 109.00 39.67 L 109.00 40.67 L 108.67 41.00 L 108.67 44.33 L 108.33 44.67 L 108.33 45.67 L 107.67 46.67 L 107.67 48.33 L 107.33 48.67 L 107.33 49.33 L 106.67 50.33 L 106.67 51.33 L 106.33 51.67 L 106.33 52.33 L 105.67 53.00 L 105.67 54.00 L 105.33 54.33 L 105.33 54.67 L 104.67 55.33 L 104.67 56.00 L 104.33 56.33 L 104.33 56.67 L 104.00 57.00 L 104.00 57.33 L 103.67 57.67 L 103.33 58.67 L 102.67 59.33 L 102.33 60.33 L 101.00 61.67 L 99.67 60.33 L 100.00 60.00 L 100.00 59.00 L 101.00 58.00 L 101.00 57.00 L 101.33 56.67 L 101.33 56.33 L 102.00 55.67 L 102.00 54.67 L 102.33 54.33 L 102.33 53.67 L 103.00 53.00 L 103.00 51.33 L 103.33 51.00 L 103.33 50.33 L 103.67 50.00 L 103.67 49.33 L 104.00 49.00 L 104.00 46.67 L 104.33 46.33 L 104.33 43.67 L 104.67 43.33 L 104.67 42.33 L 105.00 42.00 L 105.00 38.33 L 104.67 38.00 L 104.67 37.00 L 104.33 36.67 L 104.33 35.67 L 105.00 35.00 Z"/>
<path d="M 110.33 35.33 L 110.67 100.33 L 102.67 115.67 L 89.00 128.33 L 83.00 131.67 L 70.00 135.67 L 49.33 134.67 L 36.67 129.33 L 30.33 125.00 L 22.00 116.67 L 16.00 107.00 L 13.00 99.00 L 11.00 88.00 L 13.33 70.67 L 17.00 62.00 L 23.00 53.00 L 35.00 42.00 L 53.00 35.33 L 103.67 35.33 L 104.33 41.00 L 103.33 48.33 L 98.33 60.00 L 87.33 56.33 L 80.33 56.33 L 69.33 59.67 L 63.33 63.67 L 57.33 70.00 L 47.33 94.00 L 42.00 100.33 L 34.67 104.33 L 23.67 103.33 L 20.33 106.00 L 20.33 109.33 L 24.33 115.67 L 37.67 127.00 L 47.33 131.33 L 56.67 133.33 L 73.00 132.33 L 81.67 129.33 L 91.00 124.00 L 100.67 114.33 L 107.33 102.00 L 110.00 89.00 L 110.00 70.00 L 102.33 62.00 L 108.33 49.33 Z"/>
<path d="M 88.67 17.33 L 89.00 17.00 L 94.33 17.00 L 94.67 17.33 L 95.67 17.33 L 96.33 18.00 L 96.33 18.33 L 97.00 19.00 L 97.00 19.33 L 98.33 20.67 L 98.33 21.00 L 98.67 21.33 L 98.67 22.00 L 99.67 23.00 L 99.67 23.67 L 100.33 24.33 L 100.33 24.67 L 100.67 25.00 L 100.67 25.67 L 101.33 26.67 L 101.33 27.33 L 101.67 27.67 L 101.67 28.33 L 102.33 29.00 L 102.33 30.33 L 102.00 30.67 L 101.00 30.67 L 97.00 26.67 L 97.00 26.33 L 96.33 25.67 L 96.33 25.33 L 95.33 24.33 L 95.33 24.00 L 89.67 18.33 L 89.67 18.00 Z"/>
<path d="M 11.67 68.00 L 12.00 68.33 L 12.00 69.67 L 11.67 70.00 L 11.33 70.00 L 11.33 70.33 L 11.00 70.67 L 11.00 73.00 L 10.33 73.67 L 8.00 73.67 L 7.67 73.33 L 8.00 73.00 L 9.00 73.00 L 9.00 71.67 L 8.00 71.67 L 7.67 71.33 L 8.00 71.00 L 9.00 71.00 L 9.00 70.67 L 9.33 70.33 L 9.33 69.33 L 9.67 69.00 L 11.33 69.00 L 11.33 68.33 Z"/>
<path d="M 107.33 17.00 L 109.67 17.00 L 110.67 18.00 L 110.67 29.67 L 110.00 30.33 L 109.33 29.33 L 109.33 25.67 L 109.00 25.33 L 109.00 24.00 L 108.33 23.00 L 108.33 21.00 L 108.00 20.67 L 108.00 20.00 L 107.33 19.00 L 107.33 18.00 L 107.00 17.67 L 107.00 17.33 Z"/>
<path d="M 111.67 34.67 L 112.00 35.00 L 112.00 62.67 L 111.67 63.00 L 111.33 62.67 L 111.33 35.00 Z"/>
</svg>